PathFileType	4	(x/y/z)	S05_PSF_T02
DataRate	CameraRate	NumFrames	NumMarkers	Units	OrigDataRate	OrigDataStartFrame	OrigNumFrames
240	240	10	50	mm	240	166	442
Frame#	Time	Sternum			R.Acromium			L.Acromium			Top.Head			R.ASIS			L.ASIS			R.PSIS			L.PSIS			R.Great.Tro			L.Great.Tro			R.Iliac.Crest			L.Iliac.Crest			V.Sacral			R.Thigh.Upper.Post			R.Thigh.Lower.Ant			R.Thigh.Lower.Post			R.Thigh.Upper.Ant			R.Knee.Lat			R.Knee.Med			R.Shank.Upper.Post			R.Shank.Lower.Ant			R.Shank.Lower.Post			R.Shank.Upper.Ant			R.Ankle.Lat			R.Ankle.Med			R.Heel.Upper			R.Heel.Med			R.Heel.Lat			R.Toe.Lat			R.Toe.Med			R.Toe.Tip			L.Thigh.Upper.Post			L.Thigh.Lower.Ant			L.Thigh.Lower.Post			L.Thigh.Upper.Ant			L.Knee.Lat			L.Shank.Upper.Post			L.Shank.Lower.Ant			L.Shank.Lower.Post			L.Shank.Upper.Ant			L.Ankle.Lat			L.Ankle.Med			L.Heel.Upper			L.Heel.Med			L.Heel.Lat			L.Toe.Lat			L.Toe.Med			L.Toe.Tip			Cervical.Spine			Back			
		X1	Y1	Z1	X2	Y2	Z2	X3	Y3	Z3	X4	Y4	Z4	X5	Y5	Z5	X6	Y6	Z6	X7	Y7	Z7	X8	Y8	Z8	X9	Y9	Z9	X10	Y10	Z10	X11	Y11	Z11	X12	Y12	Z12	X13	Y13	Z13	X14	Y14	Z14	X15	Y15	Z15	X16	Y16	Z16	X17	Y17	Z17	X18	Y18	Z18	X19	Y19	Z19	X20	Y20	Z20	X21	Y21	Z21	X22	Y22	Z22	X23	Y23	Z23	X24	Y24	Z24	X25	Y25	Z25	X26	Y26	Z26	X27	Y27	Z27	X28	Y28	Z28	X29	Y29	Z29	X30	Y30	Z30	X31	Y31	Z31	X32	Y32	Z32	X33	Y33	Z33	X34	Y34	Z34	X35	Y35	Z35	X36	Y36	Z36	X37	Y37	Z37	X38	Y38	Z38	X39	Y39	Z39	X40	Y40	Z40	X41	Y41	Z41	X42	Y42	Z42	X43	Y43	Z43	X44	Y44	Z44	X45	Y45	Z45	X46	Y46	Z46	X47	Y47	Z47	X48	Y48	Z48	X49	Y49	Z49	X50	Y50	Z50	

166	0.6875	-631.24	1226.9	290.36	-719.79	1487.6	448.3	-728.15	1509.3	122.47	-715.95	1802.2	273.78	-690.2	981.22	410.42	NaN	NaN	NaN	-895.53	998.81	339.45	-905.12	1011	248.31	-757.02	895.3	477.67	-809.51	919.88	93.261	-780.46	1062.1	457.02	-793.52	1066.2	120.34	-909.09	967.74	305.11	-640.03	699.59	463.55	-575.71	648.4	403.06	-628	612.84	439.59	-592.56	733.53	426.14	-602.87	522.23	416.15	-601.17	509.88	284.67	-603.87	271.61	405.28	-523.48	230.38	409.78	-579.07	199.61	389.69	-548.02	303.14	422.45	-496.93	125.12	391.67	-497.38	148.85	306.24	-545.94	59.986	329.01	-524.72	32.548	302.55	-530.33	35.553	366.99	-372.87	73.521	425.69	-340.47	94.123	309.27	-289.82	134.07	356.03	-868.21	695.4	101.95	-810.1	603.26	122.07	-882.73	601.75	119.7	-790.53	689.87	101.8	-907.15	509.28	129.11	-1053.9	359.49	137.82	-1022.2	276.22	139.9	-1090.2	295.65	159.71	-993.29	339.6	125.3	-1126.2	154.45	171.55	-1082.8	157.88	255.65	-1197.2	127.8	229.5	-1191	101.88	262.27	-1206	100.85	202.73	-1040	38.314	137.66	-1005.7	49.111	255.18	-947.67	44.64	197.55	-772.34	1540.1	289.92	-893.17	1268.6	287.02
167	0.69167	-625.1	1227.1	291.02	-714.26	1487.5	449.15	-722.26	1509.5	123.25	-710.22	1802.4	274.64	-683.82	981.41	410.75	NaN	NaN	NaN	-889.26	998.81	339.96	-898.51	1010.7	248.8	-750.27	895.41	478.03	-803.19	919.5	93.748	-773.81	1062.2	457.39	-787.3	1066.2	120.78	-902.72	967.62	305.66	-634.22	699.5	463.78	-570.15	648.06	403.22	-622.5	612.68	439.82	-586.63	733.27	426.35	-597.3	522.24	416.49	-596.21	509.69	284.97	-599.83	271.61	405.53	-519.78	229.71	409.69	-575.69	199.4	389.84	-543.65	302.69	422.46	-494.4	124.46	391.53	-494.78	147.9	306.09	-544.71	60.63	328.96	-524.21	32.65	302.48	-529.58	35.903	366.92	-371.27	70.688	425.22	-338.58	90.424	308.75	-287.03	129.45	355.33	-861.42	694.82	102.32	-802.88	602.82	121.81	-875.42	601.14	119.62	-783.62	689.59	101.89	-899.82	508.81	128.77	-1048.3	361.02	137.56	-1017.8	277.25	139.5	-1085.5	297.6	159.46	-988.01	340.29	124.89	-1123.4	157	171.12	-1079.8	159.67	255.1	-1194.6	131.84	229.18	-1188.8	105.92	262.04	-1203.9	104.9	202.57	-1039.6	38.686	137.59	-1005.1	49.309	255.05	-947.49	44.363	197.52	-766.68	1540.2	290.72	-887.11	1268.5	287.54
168	0.69583	-618.95	1227.4	291.67	-708.72	1487.5	450	-716.39	1509.7	124.03	-704.48	1802.6	275.5	-677.49	981.68	411.1	NaN	NaN	NaN	-883.03	998.91	340.43	-891.89	1010.5	249.26	-743.63	895.64	478.43	-796.83	919.12	94.25	-767.23	1062.3	457.75	-781.05	1066.2	121.22	-896.38	967.59	306.19	-628.47	699.52	464.05	-564.62	647.84	403.41	-617.03	612.63	440.11	-580.78	733.12	426.59	-591.77	522.32	416.92	-591.3	509.58	285.35	-595.88	271.69	405.89	-516.15	229.12	409.69	-572.39	199.28	390.1	-539.37	302.32	422.57	-491.97	123.87	391.48	-492.25	147.07	306.04	-543.5	61.321	328.96	-523.7	32.847	302.44	-528.86	36.295	366.9	-369.76	67.965	424.87	-336.79	86.903	308.37	-284.38	124.97	354.79	-854.5	694.22	102.68	-795.46	602.38	121.53	-867.91	600.51	119.51	-776.58	689.33	101.97	-892.26	508.32	128.38	-1042.5	362.59	137.3	-1013.2	278.33	139.08	-1080.5	299.62	159.21	-982.49	341	124.44	-1120.4	159.68	170.7	-1076.5	161.55	254.55	-1191.7	136.09	228.87	-1186.4	110.18	261.82	-1201.6	109.18	202.42	-1039.2	39.15	137.53	-1004.4	49.537	254.92	-947.29	44.073	197.5	-761.02	1540.3	291.53	-881.05	1268.5	288.06
169	0.7	-612.79	1227.8	292.31	-703.15	1487.6	450.84	-710.53	1510.1	124.81	-698.74	1802.9	276.37	-671.2	982.05	411.48	NaN	NaN	NaN	-876.82	999.09	340.86	-885.28	1010.4	249.67	-737.1	896	478.85	-790.44	918.77	94.767	-760.72	1062.6	458.12	-774.78	1066.3	121.66	-890.06	967.64	306.69	-622.76	699.66	464.35	-559.13	647.74	403.66	-611.59	612.69	440.46	-574.98	733.1	426.85	-586.31	522.47	417.42	-586.43	509.57	285.79	-592	271.85	406.34	-512.62	228.62	409.79	-569.16	199.24	390.45	-535.17	302.02	422.78	-489.63	123.35	391.52	-489.8	146.36	306.09	-542.33	62.041	329.01	-523.19	33.127	302.44	-528.16	36.716	366.92	-368.35	65.358	424.63	-335.08	83.57	308.1	-281.87	120.65	354.42	-847.43	693.59	103.03	-787.86	601.96	121.22	-860.21	599.84	119.38	-769.39	689.09	102.05	-884.46	507.81	127.94	-1036.4	364.17	137.04	-1008.4	279.46	138.64	-1075.2	301.68	158.94	-976.73	341.74	123.97	-1117.1	162.48	170.28	-1073.1	163.52	253.99	-1188.5	140.55	228.56	-1183.7	114.67	261.62	-1199	113.7	202.28	-1038.7	39.716	137.48	-1003.6	49.807	254.78	-947.07	43.769	197.47	-755.37	1540.5	292.34	-874.98	1268.6	288.59
170	0.70417	-606.63	1228.3	292.94	-697.57	1487.8	451.69	-704.68	1510.5	125.59	-693.01	1803.3	277.24	-664.97	982.51	411.88	NaN	NaN	NaN	-870.66	999.37	341.25	-878.68	1010.3	250.03	-730.69	896.48	479.29	-784	918.42	95.295	-754.31	1062.9	458.48	-768.49	1066.4	122.1	-883.78	967.78	307.15	-617.1	699.91	464.68	-553.65	647.76	403.96	-606.15	612.87	440.84	-569.23	733.19	427.15	-580.91	522.69	417.99	-581.59	509.64	286.3	-588.21	272.07	406.9	-509.18	228.19	409.97	-566.04	199.28	390.9	-531.06	301.78	423.07	-487.41	122.87	391.63	-487.43	145.75	306.22	-541.2	62.777	329.1	-522.69	33.473	302.47	-527.49	37.155	366.96	-367.05	62.873	424.48	-333.48	80.428	307.93	-279.51	116.51	354.18	-840.21	692.93	103.36	-780.07	601.54	120.89	-852.33	599.14	119.21	-762.05	688.87	102.11	-876.42	507.28	127.46	-1030.1	365.78	136.77	-1003.3	280.64	138.18	-1069.7	303.81	158.67	-970.7	342.51	123.46	-1113.6	165.4	169.87	-1069.4	165.6	253.42	-1185	145.21	228.27	-1180.7	119.4	261.43	-1196.2	118.46	202.14	-1038.2	40.399	137.43	-1002.8	50.13	254.64	-946.82	43.451	197.45	-749.71	1540.7	293.16	-868.92	1268.7	289.12
171	0.70833	-600.48	1228.8	293.56	-691.97	1488	452.53	-698.85	1510.9	126.36	-687.28	1803.7	278.12	-658.79	983.07	412.32	NaN	NaN	NaN	-864.53	999.73	341.6	-872.08	1010.2	250.35	-724.4	897.08	479.77	-777.53	918.09	95.831	-748	1063.4	458.85	-762.16	1066.6	122.53	-877.53	967.99	307.56	-611.47	700.27	465.05	-548.17	647.91	404.32	-600.72	613.16	441.26	-563.52	733.41	427.49	-575.57	522.98	418.64	-576.77	509.79	286.87	-584.51	272.35	407.55	-505.85	227.82	410.23	-563.01	199.39	391.44	-527.05	301.6	423.44	-485.3	122.45	391.81	-485.18	145.23	306.42	-540.13	63.517	329.23	-522.21	33.873	302.52	-526.86	37.601	367.04	-365.85	60.514	424.42	-331.99	77.481	307.85	-277.31	112.56	354.06	-832.85	692.25	103.67	-772.09	601.13	120.53	-844.26	598.41	119.02	-754.57	688.67	102.17	-868.14	506.73	126.93	-1023.5	367.41	136.48	-997.94	281.87	137.7	-1063.9	305.98	158.37	-964.41	343.31	122.93	-1109.8	168.44	169.46	-1065.4	167.78	252.84	-1181.2	150.08	227.98	-1177.4	124.35	261.26	-1193	123.46	202.01	-1037.6	41.212	137.39	-1001.9	50.519	254.5	-946.53	43.121	197.42	-744.05	1541	293.98	-862.86	1269	289.65
172	0.7125	-594.34	1229.4	294.18	-686.34	1488.3	453.35	-693.02	1511.5	127.13	-681.55	1804.2	278.99	-652.68	983.71	412.79	NaN	NaN	NaN	-858.45	1000.2	341.89	-865.5	1010.3	250.63	-718.24	897.8	480.26	-771.02	917.77	96.374	-741.81	1063.9	459.21	-755.82	1066.8	122.96	-871.33	968.28	307.94	-605.89	700.75	465.44	-542.7	648.19	404.73	-595.3	613.56	441.72	-557.84	733.74	427.89	-570.3	523.32	419.34	-571.98	510.03	287.51	-580.92	272.69	408.28	-502.62	227.51	410.57	-560.08	199.57	392.06	-523.14	301.47	423.88	-483.3	122.07	392.05	-483.03	144.81	306.7	-539.11	64.247	329.39	-521.74	34.313	302.59	-526.27	38.045	367.14	-364.75	58.285	424.42	-330.6	74.73	307.84	-275.27	108.8	354.03	-825.34	691.53	103.94	-763.92	600.73	120.13	-836.01	597.64	118.79	-746.94	688.48	102.21	-859.62	506.15	126.36	-1016.7	369.06	136.19	-992.33	283.14	137.2	-1057.8	308.21	158.06	-957.85	344.14	122.37	-1105.8	171.6	169.06	-1061.3	170.06	252.27	-1177	155.14	227.69	-1173.8	129.53	261.09	-1189.6	128.7	201.88	-1036.9	42.169	137.35	-1000.9	50.989	254.35	-946.19	42.78	197.38	-738.38	1541.4	294.8	-856.81	1269.2	290.16
173	0.71667	-588.22	1230.1	294.79	-680.69	1488.7	454.17	-687.19	1512.1	127.89	-675.82	1804.7	279.86	-646.63	984.44	413.29	NaN	NaN	NaN	-852.41	1000.7	342.15	-858.93	1010.3	250.86	-712.19	898.63	480.78	-764.48	917.45	96.919	-735.72	1064.6	459.58	-749.44	1067.1	123.38	-865.17	968.64	308.27	-600.35	701.31	465.87	-537.23	648.57	405.2	-589.9	614.06	442.19	-552.18	734.18	428.34	-565.1	523.71	420.08	-567.23	510.35	288.19	-577.43	273.07	409.08	-499.5	227.26	410.96	-557.27	199.8	392.74	-519.34	301.39	424.38	-481.43	121.73	392.34	-481	144.48	307.02	-538.15	64.96	329.57	-521.3	34.779	302.67	-525.71	38.481	367.26	-363.75	56.189	424.46	-329.33	72.171	307.87	-273.39	105.25	354.07	-817.68	690.8	104.17	-755.56	600.34	119.71	-827.59	596.83	118.54	-739.18	688.31	102.23	-850.86	505.56	125.75	-1009.6	370.72	135.88	-986.45	284.46	136.68	-1051.4	310.49	157.72	-951.02	344.99	121.79	-1101.5	174.88	168.66	-1056.8	172.46	251.69	-1172.6	160.39	227.4	-1170	134.94	260.94	-1185.9	134.19	201.74	-1036.2	43.283	137.32	-999.82	51.556	254.18	-945.79	42.43	197.33	-732.7	1541.9	295.62	-850.77	1269.6	290.67
174	0.72083	-582.12	1230.8	295.4	-675.03	1489.1	454.98	-681.37	1512.8	128.65	-670.1	1805.3	280.73	-640.64	985.26	413.82	NaN	NaN	NaN	-846.41	1001.2	342.36	-852.37	1010.4	251.05	-706.26	899.55	481.32	-757.92	917.14	97.465	-729.75	1065.3	459.95	-743.05	1067.4	123.79	-859.06	969.05	308.56	-594.85	701.96	466.32	-531.76	649.04	405.72	-584.52	614.65	442.7	-546.55	734.7	428.85	-559.98	524.14	420.87	-562.51	510.72	288.92	-574.04	273.49	409.95	-496.49	227.05	411.39	-554.56	200.08	393.49	-515.64	301.34	424.93	-479.67	121.42	392.66	-479.08	144.21	307.39	-537.26	65.645	329.78	-520.87	35.262	302.78	-525.19	38.901	367.39	-362.84	54.227	424.54	-328.17	69.801	307.95	-271.66	101.91	354.15	-809.88	690.03	104.36	-747.03	599.96	119.27	-818.99	596	118.26	-731.27	688.16	102.23	-841.86	504.94	125.1	-1002.2	372.4	135.55	-980.3	285.83	136.15	-1044.7	312.82	157.36	-943.91	345.88	121.2	-1096.9	178.29	168.27	-1052.1	174.95	251.11	-1167.8	165.84	227.11	-1165.8	140.56	260.79	-1181.8	139.9	201.59	-1035.3	44.569	137.29	-998.6	52.238	254.01	-945.33	42.077	197.26	-727.01	1542.4	296.44	-844.75	1270	291.16
175	0.725	-576.05	1231.6	296	-669.35	1489.6	455.77	-675.55	1513.6	129.4	-664.38	1805.9	281.6	-634.71	986.15	414.39	NaN	NaN	NaN	-840.46	1001.8	342.52	-845.84	1010.6	251.21	-700.43	900.55	481.87	-751.33	916.84	98.008	-723.9	1066.1	460.32	-736.64	1067.8	124.19	-852.99	969.52	308.81	-589.4	702.68	466.81	-526.32	649.58	406.3	-579.19	615.3	443.22	-540.94	735.28	429.42	-554.94	524.6	421.68	-557.85	511.16	289.69	-570.76	273.95	410.87	-493.6	226.87	411.86	-551.96	200.4	394.28	-512.05	301.33	425.51	-478.02	121.14	393.01	-477.3	144.01	307.79	-536.43	66.298	330	-520.47	35.751	302.89	-524.71	39.301	367.53	-362.02	52.399	424.65	-327.12	67.613	308.04	-270.1	98.775	354.27	-801.92	689.25	104.51	-738.31	599.6	118.8	-810.23	595.13	117.95	-723.22	688.02	102.22	-832.63	504.31	124.43	-994.56	374.1	135.21	-973.86	287.24	135.6	-1037.8	315.2	156.96	-936.53	346.79	120.59	-1092	181.81	167.87	-1047.2	177.56	250.53	-1162.6	171.46	226.81	-1161.4	146.4	260.63	-1177.5	145.84	201.43	-1034.3	46.039	137.25	-997.25	53.051	253.82	-944.78	41.726	197.18	-721.3	1542.9	297.25	-838.75	1270.5	291.63
